<?xml version="1.0" encoding="UTF-8"?>
<svg width="17px" height="20px" viewBox="0 0 17 20" version="1.1" xmlns="http://www.w3.org/2000/svg" xmlns:xlink="http://www.w3.org/1999/xlink">
    <!-- Generator: Sketch 58 (84663) - https://sketch.com -->
    <title>android</title>
    <desc>Created with Sketch.</desc>
    <g id="Page-1" stroke="none" stroke-width="1" fill="none" fill-rule="evenodd" opacity="0.8">
        <g id="Tags" transform="translate(-17.000000, -170.000000)" fill="#FCFCFC" fill-rule="nonzero">
            <g id="Group" transform="translate(5.000000, 160.000000)">
                <g id="Group-2" transform="translate(7.000000, 7.000000)">
                    <g id="android" transform="translate(5.000000, 3.000000)">
                        <path d="M10.4516189,20 C11.1194434,20 11.7018237,19.4169121 11.7018237,18.7483526 L11.7018237,15.8253733 L12.5366044,15.8253733 C13.0375395,15.8253733 13.3713851,15.4910269 13.3713851,14.989674 L13.3713851,6.64122137 L3.36194825,6.64122137 L3.36194825,14.9897407 C3.36194825,15.4911603 3.69586052,15.8254401 4.19672892,15.8254401 L5.03157625,15.8254401 L5.03157625,18.7484193 C5.03157625,19.4169788 5.61382327,20 6.28178111,20 C6.949539,20 7.53185267,19.4169788 7.53185267,18.7484193 L7.53185267,15.8254401 L9.20148066,15.8254401 L9.20148066,18.7484193 C9.20141402,19.4169121 9.78379434,20 10.4516189,20 Z" id="XMLID_221_"></path>
                        <path d="M15.47267,14.9618321 C16.1461529,14.9618321 16.7333333,14.3808264 16.7333333,13.7144354 L16.7333333,7.88808606 C16.7333333,7.22528604 16.1461529,6.64122137 15.47267,6.64122137 C14.7991197,6.64122137 14.2118721,7.22528604 14.2118721,7.88808606 L14.2118721,13.7144354 C14.2118721,14.3807599 14.7990525,14.9618321 15.47267,14.9618321 Z" id="XMLID_222_"></path>
                        <path d="M1.26066338,14.9618321 C1.93421359,14.9618321 2.52146119,14.3808264 2.52146119,13.7144354 L2.52146119,7.88808606 C2.52146119,7.22528604 1.9342808,6.64122137 1.26066338,6.64122137 C0.587180384,6.64122137 0,7.22528604 0,7.88808606 L0,13.7144354 C0,14.3807599 0.587180384,14.9618321 1.26066338,14.9618321 Z" id="XMLID_223_"></path>
                        <path d="M12.3695816,0.126131752 C12.2026921,-0.0420439175 11.9542241,-0.0420439175 11.7873346,0.126131752 L10.6676954,1.24349891 L10.6160423,1.29515287 C9.9521501,0.962271819 9.20781233,0.796031504 8.37889679,0.794429831 C8.37483119,0.794429831 8.37083224,0.794296358 8.36676664,0.794296358 C8.36243445,0.794296358 8.35856879,0.794429831 8.3543699,0.794429831 C7.525521,0.796031504 6.78118323,0.962271819 6.11735764,1.29515287 L6.06557125,1.24349891 L4.94599873,0.126131752 C4.77897595,-0.0420439175 4.53064119,-0.0420439175 4.36375171,0.126131752 C4.19672892,0.293373113 4.19672892,0.541565699 4.36375171,0.708673586 L5.44680049,1.79333992 C5.09782551,2.02665029 4.78137532,2.31214851 4.50618095,2.63868961 C3.84735405,3.42063973 3.42713112,4.43830275 3.36934631,5.54092117 C3.36881311,5.55239982 3.36768008,5.56374501 3.36714688,5.57522366 C3.36361448,5.65030209 3.36194825,5.72578093 3.36194825,5.80152672 L13.3713851,5.80152672 C13.3713851,5.72578093 13.3695856,5.65030209 13.3661864,5.57522366 C13.3656533,5.56374501 13.3645202,5.55239982 13.3638537,5.54092117 C13.3062022,4.43830275 12.885846,3.420573 12.2270191,2.63875634 C11.951958,2.31221525 11.6353745,2.02671703 11.2863995,1.79340666 L12.3695816,0.708740323 C12.5366044,0.541565699 12.5366044,0.293373113 12.3695816,0.126131752 Z M6.28018153,4.34206889 C5.9348056,4.34206889 5.6548125,4.06170937 5.6548125,3.71588147 C5.6548125,3.37005356 5.9348056,3.08969404 6.28018153,3.08969404 C6.62555745,3.08969404 6.90555055,3.37005356 6.90555055,3.71588147 C6.90555055,4.06170937 6.62555745,4.34206889 6.28018153,4.34206889 Z M10.4531518,4.34206889 C10.1077759,4.34206889 9.82778278,4.06170937 9.82778278,3.71588147 C9.82778278,3.37005356 10.1077759,3.08969404 10.4531518,3.08969404 C10.7985277,3.08969404 11.0785208,3.37005356 11.0785208,3.71588147 C11.0785208,4.06170937 10.7985277,4.34206889 10.4531518,4.34206889 Z" id="XMLID_224_"></path>
                    </g>
                </g>
            </g>
        </g>
    </g>
</svg>